<svg xmlns="http://www.w3.org/2000/svg" viewBox="0 0 640 180" role="img" aria-labelledby="title desc">
  <title id="title">BG Apiary logo</title>
  <desc id="desc">Logo BG Apiary w wersji jasnej z ikoną pszczoły i napisem.</desc>
  <defs>
    <linearGradient id="honey" x1="20" y1="20" x2="160" y2="160" gradientUnits="userSpaceOnUse">
      <stop stop-color="#FFC93C"/><stop offset="1" stop-color="#FF9F1C"/>
    </linearGradient>
  </defs>
  <rect width="640" height="180" rx="34" fill="#FFFFFF"/>
  <path d="M92 22 151 56v68l-59 34-59-34V56l59-34Z" fill="#111827" stroke="url(#honey)" stroke-width="7"/>
  <ellipse cx="92" cy="92" rx="28" ry="34" fill="url(#honey)" stroke="#111827" stroke-width="5"/>
  <path d="M70 80h44M66 94h52M73 108h38" stroke="#111827" stroke-width="8" stroke-linecap="round"/>
  <path d="M69 70c-17-8-26-21-20-30 7-10 25-5 36 8 6 8 3 19-16 22Z" fill="#F8FAFC" stroke="#111827" stroke-width="5"/>
  <path d="M116 70c17-8 26-21 20-30-7-10-25-5-36 8-6 8-3 19 16 22Z" fill="#F8FAFC" stroke="#111827" stroke-width="5"/>
  <text x="186" y="88" font-family="Inter, Poppins, Arial, sans-serif" font-size="54" font-weight="900" letter-spacing="-2" fill="#111827">BG <tspan fill="#D97706">APIARY</tspan></text>
  <text x="188" y="126" font-family="Inter, Poppins, Arial, sans-serif" font-size="18" font-weight="700" letter-spacing="3" fill="#475569">SMART BEEKEEPING MANAGEMENT</text>
  <path d="M188 145h278" stroke="#FFC93C" stroke-width="5" stroke-linecap="round"/>
</svg>
