<svg xmlns="http://www.w3.org/2000/svg" viewBox="0 0 256 256" role="img" aria-label="BG Apiary logo"><defs><linearGradient id="g" x1="0" x2="1" y1="0" y2="1"><stop offset="0" stop-color="#FFE083"/><stop offset=".55" stop-color="#FFC107"/><stop offset="1" stop-color="#FFB300"/></linearGradient><filter id="s" x="-20%" y="-20%" width="140%" height="140%"><feDropShadow dx="0" dy="12" stdDeviation="12" flood-color="#000" flood-opacity=".32"/></filter></defs><path fill="none" stroke="url(#g)" stroke-width="12" stroke-linejoin="round" d="M128 14 225 70v112l-97 56-97-56V70z"/><g filter="url(#s)"><ellipse cx="139" cy="125" rx="48" ry="36" transform="rotate(28 139 125)" fill="#151515"/><path d="M99 106c16 8 54 31 75 55" stroke="#FFC107" stroke-width="16" stroke-linecap="round"/><path d="M117 84c11 23 32 58 58 80" stroke="#FFC107" stroke-width="13" stroke-linecap="round" opacity=".95"/><circle cx="91" cy="93" r="20" fill="#111" stroke="#fff" stroke-width="7"/><path d="M82 72c-7-12-19-19-34-19m32 21C69 61 56 58 42 64" stroke="#fff" stroke-width="7" stroke-linecap="round" fill="none"/><path d="M146 79c31-31 70-35 84-16 11 15-4 44-42 58-24 9-46 3-42-42Z" fill="#f7fbff" stroke="#fff" stroke-width="7" opacity=".94"/><path d="M148 74c17-19 43-31 72-24" stroke="#111" stroke-opacity=".45" stroke-width="4" fill="none"/><path d="M172 108c30-9 48-25 56-44" stroke="#111" stroke-opacity=".35" stroke-width="4" fill="none"/><path d="M171 157c9 1 18-2 25-8" stroke="#fff" stroke-width="7" stroke-linecap="round"/></g></svg>