<svg xmlns="http://www.w3.org/2000/svg" viewBox="0 0 400 360" role="img" aria-label="Ul BG Apiary">
  <defs>
    <radialGradient id="bg" cx="48%" cy="42%" r="58%"><stop offset="0" stop-color="#F7F5EE"/><stop offset="1" stop-color="#FFFFFF" stop-opacity="0"/></radialGradient>
    <linearGradient id="wood" x1="0" x2="1"><stop offset="0" stop-color="#F1C06B"/><stop offset=".48" stop-color="#D8C7A3"/><stop offset="1" stop-color="#A86F2F"/></linearGradient>
    <linearGradient id="roof" x1="0" x2="1"><stop offset="0" stop-color="#7A6A55"/><stop offset="1" stop-color="#E8E8E2"/></linearGradient>
    <filter id="shadow" x="-30%" y="-30%" width="160%" height="170%"><feDropShadow dx="0" dy="18" stdDeviation="14" flood-color="#0F3D2E" flood-opacity=".24"/><feDropShadow dx="0" dy="4" stdDeviation="4" flood-color="#0F3D2E" flood-opacity=".16"/></filter>
  </defs>
  <rect width="400" height="360" fill="none"/>
  <ellipse cx="200" cy="178" rx="190" ry="150" fill="url(#bg)" opacity=".38"/>
  <g></g>
  <g></g>
  <ellipse cx="200" cy="326" rx="150" ry="22" fill="#0F3D2E" opacity=".16"/>
  <g filter="url(#shadow)">
    <path d="M88 120 L200 70 L312 120 L286 138 L200 102 L114 138z" fill="url(#roof)"/>
    <path d="M108 136h184v166H108z" fill="url(#wood)" stroke="#6B421E" stroke-width="3"/>
    <path d="M108 166h184M108 198h184M108 230h184M108 262h184" stroke="#6B421E" stroke-width="3" opacity=".65"/>
    <path d="M135 154h40M225 154h40M137 187h30M233 187h30M135 219h40M225 219h40M140 251h35M225 251h35" stroke="#5C3717" stroke-width="5" stroke-linecap="round" opacity=".72"/>
    <rect x="156" y="274" width="88" height="28" rx="3" fill="#402411"/>
    <rect x="135" y="300" width="130" height="14" rx="3" fill="#8A5A25"/>
    <circle cx="200" cy="116" r="9" fill="#2D1D0E"/>
    <circle cx="200" cy="116" r="4" fill="#F4D47A"/>
    <path d="M88 120 L200 70 L312 120" fill="none" stroke="#2F2B25" stroke-width="8" stroke-linecap="round"/>
    <path d="M122 106l24 21M158 91l18 25M198 74v29M242 91l-18 25M278 106l-24 21" stroke="#27241F" stroke-width="3" opacity=".55"/>
  </g>
  <ellipse cx="200" cy="338" rx="176" ry="22" fill="#EAF3F7" opacity=".38"/><path d="M100 111h202l-28-20H128z" fill="#F5F5EE" opacity=".85"/>
  
</svg>