<svg xmlns="http://www.w3.org/2000/svg" viewBox="0 0 400 360" role="img" aria-label="Ul BG Apiary">
  <defs>
    <radialGradient id="bg" cx="48%" cy="42%" r="58%"><stop offset="0" stop-color="#F7F5EE"/><stop offset="1" stop-color="#FFFFFF" stop-opacity="0"/></radialGradient>
    <linearGradient id="wood" x1="0" x2="1"><stop offset="0" stop-color="#F1C06B"/><stop offset=".48" stop-color="#C99548"/><stop offset="1" stop-color="#A86F2F"/></linearGradient>
    <linearGradient id="roof" x1="0" x2="1"><stop offset="0" stop-color="#7A6A55"/><stop offset="1" stop-color="#5D5346"/></linearGradient>
    <filter id="shadow" x="-30%" y="-30%" width="160%" height="170%"><feDropShadow dx="0" dy="18" stdDeviation="14" flood-color="#0F3D2E" flood-opacity=".24"/><feDropShadow dx="0" dy="4" stdDeviation="4" flood-color="#0F3D2E" flood-opacity=".16"/></filter>
  </defs>
  <rect width="400" height="360" fill="none"/>
  <ellipse cx="200" cy="178" rx="190" ry="150" fill="url(#bg)" opacity=".38"/>
  <g><g transform="translate(45 70) rotate(-18)"><ellipse cx="0" cy="0" rx="9" ry="6" fill="#D4A017"/><path d="M-4 -5v10M2 -5v10" stroke="#2E2418" stroke-width="2"/><ellipse cx="-8" cy="-8" rx="9" ry="5" fill="#F8FFFF" opacity=".68"/><ellipse cx="8" cy="-8" rx="9" ry="5" fill="#F8FFFF" opacity=".68"/></g><g transform="translate(118 111) rotate(-9)"><ellipse cx="0" cy="0" rx="9" ry="6" fill="#D4A017"/><path d="M-4 -5v10M2 -5v10" stroke="#2E2418" stroke-width="2"/><ellipse cx="-8" cy="-8" rx="9" ry="5" fill="#F8FFFF" opacity=".68"/><ellipse cx="8" cy="-8" rx="9" ry="5" fill="#F8FFFF" opacity=".68"/></g></g>
  <g><g opacity="0.95"><line x1="34" y1="328" x2="34" y2="308" stroke="#6F7F52" stroke-width="3" stroke-linecap="round"/><circle cx="28" cy="300" r="6" fill="#F4D47A"/><circle cx="40" cy="300" r="6" fill="#F4D47A"/><circle cx="34" cy="294" r="6" fill="#F4D47A"/><circle cx="34" cy="306" r="6" fill="#F4D47A"/><circle cx="34" cy="300" r="3.5" fill="#A57C2E"/></g><g opacity="0.95"><line x1="71" y1="309" x2="71" y2="289" stroke="#6F7F52" stroke-width="3" stroke-linecap="round"/><circle cx="65" cy="281" r="6" fill="#FFF7D6"/><circle cx="77" cy="281" r="6" fill="#FFF7D6"/><circle cx="71" cy="275" r="6" fill="#FFF7D6"/><circle cx="71" cy="287" r="6" fill="#FFF7D6"/><circle cx="71" cy="281" r="3.5" fill="#A57C2E"/></g><g opacity="0.95"><line x1="108" y1="290" x2="108" y2="270" stroke="#6F7F52" stroke-width="3" stroke-linecap="round"/><circle cx="102" cy="262" r="6" fill="#FFF7D6"/><circle cx="114" cy="262" r="6" fill="#FFF7D6"/><circle cx="108" cy="256" r="6" fill="#FFF7D6"/><circle cx="108" cy="268" r="6" fill="#FFF7D6"/><circle cx="108" cy="262" r="3.5" fill="#A57C2E"/></g><g opacity="0.95"><line x1="145" y1="271" x2="145" y2="251" stroke="#6F7F52" stroke-width="3" stroke-linecap="round"/><circle cx="139" cy="243" r="6" fill="#F4D47A"/><circle cx="151" cy="243" r="6" fill="#F4D47A"/><circle cx="145" cy="237" r="6" fill="#F4D47A"/><circle cx="145" cy="249" r="6" fill="#F4D47A"/><circle cx="145" cy="243" r="3.5" fill="#A57C2E"/></g><g opacity="0.95"><line x1="182" y1="312" x2="182" y2="292" stroke="#6F7F52" stroke-width="3" stroke-linecap="round"/><circle cx="176" cy="284" r="6" fill="#FFF7D6"/><circle cx="188" cy="284" r="6" fill="#FFF7D6"/><circle cx="182" cy="278" r="6" fill="#FFF7D6"/><circle cx="182" cy="290" r="6" fill="#FFF7D6"/><circle cx="182" cy="284" r="3.5" fill="#A57C2E"/></g><g opacity="0.95"><line x1="219" y1="293" x2="219" y2="273" stroke="#6F7F52" stroke-width="3" stroke-linecap="round"/><circle cx="213" cy="265" r="6" fill="#FFF7D6"/><circle cx="225" cy="265" r="6" fill="#FFF7D6"/><circle cx="219" cy="259" r="6" fill="#FFF7D6"/><circle cx="219" cy="271" r="6" fill="#FFF7D6"/><circle cx="219" cy="265" r="3.5" fill="#A57C2E"/></g><g opacity="0.95"><line x1="256" y1="274" x2="256" y2="254" stroke="#6F7F52" stroke-width="3" stroke-linecap="round"/><circle cx="250" cy="246" r="6" fill="#F4D47A"/><circle cx="262" cy="246" r="6" fill="#F4D47A"/><circle cx="256" cy="240" r="6" fill="#F4D47A"/><circle cx="256" cy="252" r="6" fill="#F4D47A"/><circle cx="256" cy="246" r="3.5" fill="#A57C2E"/></g></g>
  <ellipse cx="200" cy="326" rx="150" ry="22" fill="#0F3D2E" opacity=".16"/>
  <g filter="url(#shadow)">
    <path d="M88 120 L200 70 L312 120 L286 138 L200 102 L114 138z" fill="url(#roof)"/>
    <path d="M108 136h184v166H108z" fill="url(#wood)" stroke="#6B421E" stroke-width="3"/>
    <path d="M108 166h184M108 198h184M108 230h184M108 262h184" stroke="#6B421E" stroke-width="3" opacity=".65"/>
    <path d="M135 154h40M225 154h40M137 187h30M233 187h30M135 219h40M225 219h40M140 251h35M225 251h35" stroke="#5C3717" stroke-width="5" stroke-linecap="round" opacity=".72"/>
    <rect x="156" y="274" width="88" height="28" rx="3" fill="#402411"/>
    <rect x="135" y="300" width="130" height="14" rx="3" fill="#8A5A25"/>
    <circle cx="200" cy="116" r="9" fill="#2D1D0E"/>
    <circle cx="200" cy="116" r="4" fill="#F4D47A"/>
    <path d="M88 120 L200 70 L312 120" fill="none" stroke="#2F2B25" stroke-width="8" stroke-linecap="round"/>
    <path d="M122 106l24 21M158 91l18 25M198 74v29M242 91l-18 25M278 106l-24 21" stroke="#27241F" stroke-width="3" opacity=".55"/>
  </g>
  
  
</svg>