<svg xmlns="http://www.w3.org/2000/svg" width="960" height="540" viewBox="0 0 960 540" role="img" aria-label="Placeholder pasieki">
  <defs>
    <linearGradient id="bg" x1="0" y1="0" x2="960" y2="540" gradientUnits="userSpaceOnUse"><stop stop-color="#0f172a"/><stop offset="1" stop-color="#1f2937"/></linearGradient>
    <linearGradient id="honey" x1="260" y1="80" x2="700" y2="460" gradientUnits="userSpaceOnUse"><stop stop-color="#ffd66b"/><stop offset="1" stop-color="#2f9e44"/></linearGradient>
  </defs>
  <rect width="960" height="540" rx="44" fill="url(#bg)"/>
  <g opacity=".16" fill="none" stroke="#f5b82e" stroke-width="3">
    <polygon points="460,52 512,82 512,142 460,172 408,142 408,82"/><polygon points="568,112 620,142 620,202 568,232 516,202 516,142"/><polygon points="352,112 404,142 404,202 352,232 300,202 300,142"/>
    <polygon points="460,292 512,322 512,382 460,412 408,382 408,322"/><polygon points="568,352 620,382 620,442 568,472 516,442 516,382"/><polygon points="352,352 404,382 404,442 352,472 300,442 300,382"/>
  </g>
  <circle cx="480" cy="210" r="94" fill="url(#honey)"/>
  <text x="480" y="244" text-anchor="middle" font-size="92" font-family="Arial, sans-serif" fill="#111827">⌂</text>
  <text x="480" y="356" text-anchor="middle" font-size="42" font-weight="800" fill="#ffffff" font-family="Inter, Arial, sans-serif">Placeholder pasieki</text>
  <text x="480" y="402" text-anchor="middle" font-size="22" fill="#cbd5e1" font-family="Inter, Arial, sans-serif">Pasieka bez własnego zdjęcia tła</text>
</svg>